%TF.GenerationSoftware,KiCad,Pcbnew,(6.0.2)*%
%TF.CreationDate,2022-04-03T14:16:10+02:00*%
%TF.ProjectId,Blinky,426c696e-6b79-42e6-9b69-6361645f7063,rev?*%
%TF.SameCoordinates,Original*%
%TF.FileFunction,Legend,Bot*%
%TF.FilePolarity,Positive*%
%FSLAX46Y46*%
G04 Gerber Fmt 4.6, Leading zero omitted, Abs format (unit mm)*
G04 Created by KiCad (PCBNEW (6.0.2)) date 2022-04-03 14:16:10*
%MOMM*%
%LPD*%
G01*
G04 APERTURE LIST*
%ADD10C,0.150000*%
%ADD11C,0.152400*%
%ADD12C,0.120000*%
G04 APERTURE END LIST*
D10*
%TO.C,SW1*%
X196905238Y-68233333D02*
X196857619Y-68090476D01*
X196857619Y-67852380D01*
X196905238Y-67757142D01*
X196952857Y-67709523D01*
X197048095Y-67661904D01*
X197143333Y-67661904D01*
X197238571Y-67709523D01*
X197286190Y-67757142D01*
X197333809Y-67852380D01*
X197381428Y-68042857D01*
X197429047Y-68138095D01*
X197476666Y-68185714D01*
X197571904Y-68233333D01*
X197667142Y-68233333D01*
X197762380Y-68185714D01*
X197810000Y-68138095D01*
X197857619Y-68042857D01*
X197857619Y-67804761D01*
X197810000Y-67661904D01*
X197857619Y-67328571D02*
X196857619Y-67090476D01*
X197571904Y-66900000D01*
X196857619Y-66709523D01*
X197857619Y-66471428D01*
X196857619Y-65566666D02*
X196857619Y-66138095D01*
X196857619Y-65852380D02*
X197857619Y-65852380D01*
X197714761Y-65947619D01*
X197619523Y-66042857D01*
X197571904Y-66138095D01*
%TO.C,BT1*%
X193835714Y-45918571D02*
X193692857Y-45966190D01*
X193645238Y-46013809D01*
X193597619Y-46109047D01*
X193597619Y-46251904D01*
X193645238Y-46347142D01*
X193692857Y-46394761D01*
X193788095Y-46442380D01*
X194169047Y-46442380D01*
X194169047Y-45442380D01*
X193835714Y-45442380D01*
X193740476Y-45490000D01*
X193692857Y-45537619D01*
X193645238Y-45632857D01*
X193645238Y-45728095D01*
X193692857Y-45823333D01*
X193740476Y-45870952D01*
X193835714Y-45918571D01*
X194169047Y-45918571D01*
X193311904Y-45442380D02*
X192740476Y-45442380D01*
X193026190Y-46442380D02*
X193026190Y-45442380D01*
X191883333Y-46442380D02*
X192454761Y-46442380D01*
X192169047Y-46442380D02*
X192169047Y-45442380D01*
X192264285Y-45585238D01*
X192359523Y-45680476D01*
X192454761Y-45728095D01*
D11*
%TO.C,SW1*%
X189549999Y-65694400D02*
X196550001Y-65694400D01*
X196550001Y-65694400D02*
X196550001Y-68694400D01*
X196550001Y-68694400D02*
X189549999Y-68694400D01*
X189549999Y-68694400D02*
X189549999Y-65694400D01*
X191050000Y-70194399D02*
X192550000Y-70194399D01*
X192550000Y-70194399D02*
X192550000Y-68694400D01*
X192550000Y-68694400D02*
X191050000Y-68694400D01*
X191050000Y-68694400D02*
X191050000Y-70194399D01*
%TO.C,LG1*%
G36*
X198686688Y-60286199D02*
G01*
X197433678Y-60287495D01*
X197238970Y-60288469D01*
X196809262Y-60296387D01*
X196450726Y-60310903D01*
X196196269Y-60330419D01*
X196078795Y-60353335D01*
X196085692Y-60375423D01*
X196217018Y-60440105D01*
X196478593Y-60533803D01*
X196848957Y-60649087D01*
X197306654Y-60778526D01*
X197609671Y-60861459D01*
X198023064Y-60977283D01*
X198357477Y-61074256D01*
X198584524Y-61144085D01*
X198675821Y-61178478D01*
X198683659Y-61209032D01*
X198671758Y-61365810D01*
X198627352Y-61600639D01*
X198604167Y-61718480D01*
X198586371Y-61926419D01*
X198613069Y-62028845D01*
X198642085Y-62084225D01*
X198674201Y-62271273D01*
X198686688Y-62534862D01*
X198686688Y-62995532D01*
X194948896Y-62995532D01*
X194948896Y-62088685D01*
X195522307Y-62034711D01*
X195642557Y-62024661D01*
X196039163Y-62001049D01*
X196499006Y-61983355D01*
X196945217Y-61974815D01*
X197794715Y-61968894D01*
X196393266Y-61586380D01*
X196024112Y-61484798D01*
X195607760Y-61367993D01*
X195273277Y-61271578D01*
X195048046Y-61203477D01*
X194959452Y-61171609D01*
X194954563Y-61136001D01*
X194976092Y-60975082D01*
X195029003Y-60735956D01*
X195060759Y-60598851D01*
X195084486Y-60386436D01*
X195039908Y-60302324D01*
X195003880Y-60252675D01*
X194964286Y-60072991D01*
X194948896Y-59813477D01*
X194948896Y-59354866D01*
X198686688Y-59354866D01*
X198686688Y-60286199D01*
G37*
G36*
X190470868Y-59399664D02*
G01*
X190806251Y-59601735D01*
X191083678Y-59848605D01*
X191110169Y-61422068D01*
X191136660Y-62995532D01*
X190106755Y-62995532D01*
X190106755Y-61730635D01*
X189797576Y-61939750D01*
X189725399Y-61985245D01*
X189481600Y-62102054D01*
X189283659Y-62148866D01*
X189220449Y-62145185D01*
X188940888Y-62068330D01*
X188674516Y-61922136D01*
X188499514Y-61746701D01*
X188469663Y-61713189D01*
X188436153Y-61763492D01*
X188417181Y-61953157D01*
X188410342Y-62297032D01*
X188407759Y-62995532D01*
X187473311Y-62995532D01*
X187473311Y-59849840D01*
X187721625Y-59602353D01*
X187958749Y-59432366D01*
X188311759Y-59340672D01*
X188677042Y-59393813D01*
X189011318Y-59592136D01*
X189277758Y-59829407D01*
X189515823Y-59592136D01*
X189757096Y-59422817D01*
X190106963Y-59339920D01*
X190470868Y-59399664D01*
G37*
G36*
X194462788Y-62346506D02*
G01*
X194396080Y-62555143D01*
X194295101Y-62711449D01*
X194153167Y-62845483D01*
X194147048Y-62850340D01*
X193873478Y-62972170D01*
X193535420Y-63000081D01*
X193203592Y-62937465D01*
X192948713Y-62787714D01*
X192740200Y-62579896D01*
X192740200Y-62787714D01*
X192740196Y-62791834D01*
X192728060Y-62905328D01*
X192665636Y-62966275D01*
X192513069Y-62990926D01*
X192230501Y-62995532D01*
X191720802Y-62995532D01*
X191720802Y-61979532D01*
X192740200Y-61979532D01*
X193504749Y-61979532D01*
X193504749Y-61180904D01*
X193502707Y-60852726D01*
X193491097Y-60595373D01*
X193462889Y-60444519D01*
X193411093Y-60366235D01*
X193328718Y-60326593D01*
X193182097Y-60303597D01*
X192946444Y-60322500D01*
X192927328Y-60327384D01*
X192838175Y-60361674D01*
X192783055Y-60429918D01*
X192753800Y-60565960D01*
X192742238Y-60803644D01*
X192740200Y-61176812D01*
X192740200Y-61979532D01*
X191720802Y-61979532D01*
X191720802Y-59354866D01*
X192230501Y-59354866D01*
X192240606Y-59354867D01*
X192518963Y-59359815D01*
X192668444Y-59385267D01*
X192728904Y-59447473D01*
X192740200Y-59562684D01*
X192740200Y-59770502D01*
X192948713Y-59562684D01*
X193039323Y-59482877D01*
X193250413Y-59382487D01*
X193548947Y-59354866D01*
X193818816Y-59367674D01*
X194078465Y-59429570D01*
X194267155Y-59560920D01*
X194395476Y-59781508D01*
X194474021Y-60111121D01*
X194513381Y-60569543D01*
X194524147Y-61176560D01*
X194520113Y-61652005D01*
X194505332Y-61979532D01*
X194501905Y-62055479D01*
X194462788Y-62346506D01*
G37*
D12*
%TO.C,BT1*%
X186300000Y-50540000D02*
X186300000Y-51990000D01*
X199800000Y-50540000D02*
X197200000Y-47940000D01*
X188900000Y-47140000D02*
X188900000Y-47940000D01*
X197200000Y-47940000D02*
X197200000Y-47140000D01*
X199800000Y-55990000D02*
X199800000Y-58090000D01*
X199800000Y-51990000D02*
X199800000Y-50540000D01*
X188900000Y-47940000D02*
X186300000Y-50540000D01*
X197200000Y-47140000D02*
X188900000Y-47140000D01*
X186300000Y-55990000D02*
X186300000Y-58090000D01*
X187635385Y-59574160D02*
G75*
G03*
X188550000Y-59190000I124615J984161D01*
G01*
X186300000Y-58040000D02*
G75*
G03*
X187750000Y-59590000I1499999J-50001D01*
G01*
X198350000Y-59590000D02*
G75*
G03*
X199800000Y-58040000I-49999J1499999D01*
G01*
X197550000Y-59190000D02*
G75*
G03*
X198464615Y-59574160I790000J600001D01*
G01*
%TD*%
M02*
