%TF.GenerationSoftware,KiCad,Pcbnew,(6.0.2)*%
%TF.CreationDate,2022-04-03T14:16:10+02:00*%
%TF.ProjectId,Blinky,426c696e-6b79-42e6-9b69-6361645f7063,rev?*%
%TF.SameCoordinates,Original*%
%TF.FileFunction,Copper,L2,Bot*%
%TF.FilePolarity,Positive*%
%FSLAX46Y46*%
G04 Gerber Fmt 4.6, Leading zero omitted, Abs format (unit mm)*
G04 Created by KiCad (PCBNEW (6.0.2)) date 2022-04-03 14:16:10*
%MOMM*%
%LPD*%
G01*
G04 APERTURE LIST*
G04 Aperture macros list*
%AMRoundRect*
0 Rectangle with rounded corners*
0 $1 Rounding radius*
0 $2 $3 $4 $5 $6 $7 $8 $9 X,Y pos of 4 corners*
0 Add a 4 corners polygon primitive as box body*
4,1,4,$2,$3,$4,$5,$6,$7,$8,$9,$2,$3,0*
0 Add four circle primitives for the rounded corners*
1,1,$1+$1,$2,$3*
1,1,$1+$1,$4,$5*
1,1,$1+$1,$6,$7*
1,1,$1+$1,$8,$9*
0 Add four rect primitives between the rounded corners*
20,1,$1+$1,$2,$3,$4,$5,0*
20,1,$1+$1,$4,$5,$6,$7,0*
20,1,$1+$1,$6,$7,$8,$9,0*
20,1,$1+$1,$8,$9,$2,$3,0*%
G04 Aperture macros list end*
%TA.AperFunction,SMDPad,CuDef*%
%ADD10RoundRect,0.250000X-0.250000X-0.750000X0.250000X-0.750000X0.250000X0.750000X-0.250000X0.750000X0*%
%TD*%
%TA.AperFunction,SMDPad,CuDef*%
%ADD11R,3.500000X3.300000*%
%TD*%
%TA.AperFunction,SMDPad,CuDef*%
%ADD12C,10.200000*%
%TD*%
%TA.AperFunction,ViaPad*%
%ADD13C,0.400000*%
%TD*%
%TA.AperFunction,Conductor*%
%ADD14C,0.800000*%
%TD*%
G04 APERTURE END LIST*
D10*
%TO.P,SW1,1,A*%
%TO.N,/VCC*%
X190550000Y-64694400D03*
%TO.P,SW1,2,B*%
%TO.N,Net-(BT1-Pad1)*%
X193050000Y-64694400D03*
%TO.P,SW1,3,C*%
%TO.N,unconnected-(SW1-Pad3)*%
X195550000Y-64694400D03*
%TD*%
D11*
%TO.P,BT1,1,+*%
%TO.N,Net-(BT1-Pad1)*%
X185150000Y-53990000D03*
X200950000Y-53990000D03*
D12*
%TO.P,BT1,2,-*%
%TO.N,GND*%
X193050000Y-53990000D03*
%TD*%
D13*
%TO.N,GND*%
X189080000Y-58650000D03*
X192280000Y-51810000D03*
X183670000Y-59570000D03*
X196140000Y-45820000D03*
%TO.N,/VCC*%
X188440000Y-63340000D03*
%TD*%
D14*
%TO.N,Net-(BT1-Pad1)*%
X193050000Y-64694400D02*
X185150000Y-56794400D01*
X193050000Y-64694400D02*
X200950000Y-56794400D01*
X200950000Y-56794400D02*
X200950000Y-53990000D01*
X185150000Y-56794400D02*
X185150000Y-53990000D01*
%TO.N,/VCC*%
X189794400Y-64694400D02*
X188440000Y-63340000D01*
X190550000Y-64694400D02*
X189794400Y-64694400D01*
%TD*%
%TA.AperFunction,Conductor*%
%TO.N,GND*%
G36*
X199114874Y-39213002D02*
G01*
X199135999Y-39230055D01*
X207316452Y-47438523D01*
X207525248Y-47648034D01*
X207559166Y-47710404D01*
X207562000Y-47736977D01*
X207562000Y-59642390D01*
X207541998Y-59710511D01*
X207525095Y-59731485D01*
X199096485Y-68160095D01*
X199034173Y-68194121D01*
X199007390Y-68197000D01*
X195123460Y-68197000D01*
X195055339Y-68176998D01*
X195008846Y-68123342D01*
X194998742Y-68053068D01*
X195021524Y-67996939D01*
X195087237Y-67906494D01*
X195087238Y-67906493D01*
X195091118Y-67901152D01*
X195168794Y-67726688D01*
X195208500Y-67539887D01*
X195208500Y-67348913D01*
X195168794Y-67162112D01*
X195091118Y-66987648D01*
X194978866Y-66833147D01*
X194836944Y-66705360D01*
X194671556Y-66609873D01*
X194489928Y-66550858D01*
X194483367Y-66550168D01*
X194483365Y-66550168D01*
X194430111Y-66544571D01*
X194347610Y-66535900D01*
X194252390Y-66535900D01*
X194169889Y-66544571D01*
X194116635Y-66550168D01*
X194116633Y-66550168D01*
X194110072Y-66550858D01*
X193928444Y-66609873D01*
X193763056Y-66705360D01*
X193621134Y-66833147D01*
X193508882Y-66987648D01*
X193431206Y-67162112D01*
X193391500Y-67348913D01*
X193391500Y-67539887D01*
X193431206Y-67726688D01*
X193508882Y-67901152D01*
X193512762Y-67906493D01*
X193512763Y-67906494D01*
X193578476Y-67996939D01*
X193602334Y-68063806D01*
X193586254Y-68132958D01*
X193535341Y-68182438D01*
X193476540Y-68197000D01*
X192623460Y-68197000D01*
X192555339Y-68176998D01*
X192508846Y-68123342D01*
X192498742Y-68053068D01*
X192521524Y-67996939D01*
X192587237Y-67906494D01*
X192587238Y-67906493D01*
X192591118Y-67901152D01*
X192668794Y-67726688D01*
X192708500Y-67539887D01*
X192708500Y-67348913D01*
X192668794Y-67162112D01*
X192591118Y-66987648D01*
X192478866Y-66833147D01*
X192336944Y-66705360D01*
X192171556Y-66609873D01*
X191989928Y-66550858D01*
X191983367Y-66550168D01*
X191983365Y-66550168D01*
X191930111Y-66544571D01*
X191847610Y-66535900D01*
X191752390Y-66535900D01*
X191669889Y-66544571D01*
X191616635Y-66550168D01*
X191616633Y-66550168D01*
X191610072Y-66550858D01*
X191428444Y-66609873D01*
X191263056Y-66705360D01*
X191121134Y-66833147D01*
X191008882Y-66987648D01*
X190931206Y-67162112D01*
X190891500Y-67348913D01*
X190891500Y-67539887D01*
X190931206Y-67726688D01*
X191008882Y-67901152D01*
X191012762Y-67906493D01*
X191012763Y-67906494D01*
X191078476Y-67996939D01*
X191102334Y-68063806D01*
X191086254Y-68132958D01*
X191035341Y-68182438D01*
X190976540Y-68197000D01*
X187092610Y-68197000D01*
X187024489Y-68176998D01*
X187003515Y-68160095D01*
X178574905Y-59731485D01*
X178540879Y-59669173D01*
X178538000Y-59642390D01*
X178538000Y-55688134D01*
X182891500Y-55688134D01*
X182898255Y-55750316D01*
X182949385Y-55886705D01*
X183036739Y-56003261D01*
X183153295Y-56090615D01*
X183289684Y-56141745D01*
X183351866Y-56148500D01*
X184115500Y-56148500D01*
X184183621Y-56168502D01*
X184230114Y-56222158D01*
X184241500Y-56274500D01*
X184241500Y-56712983D01*
X184239949Y-56732692D01*
X184237748Y-56746590D01*
X184238093Y-56753177D01*
X184238093Y-56753182D01*
X184241327Y-56814880D01*
X184241500Y-56821474D01*
X184241500Y-56842010D01*
X184241844Y-56845282D01*
X184241844Y-56845284D01*
X184243647Y-56862442D01*
X184244164Y-56869015D01*
X184247743Y-56937303D01*
X184249453Y-56943684D01*
X184249453Y-56943686D01*
X184251383Y-56950891D01*
X184254985Y-56970325D01*
X184255766Y-56977754D01*
X184255768Y-56977763D01*
X184256458Y-56984328D01*
X184277600Y-57049397D01*
X184279467Y-57055699D01*
X184297171Y-57121770D01*
X184303559Y-57134307D01*
X184311125Y-57152573D01*
X184315473Y-57165956D01*
X184318776Y-57171678D01*
X184318777Y-57171679D01*
X184349667Y-57225182D01*
X184352814Y-57230977D01*
X184383871Y-57291930D01*
X184388024Y-57297058D01*
X184388025Y-57297060D01*
X184392727Y-57302866D01*
X184403927Y-57319163D01*
X184407657Y-57325624D01*
X184407660Y-57325628D01*
X184410960Y-57331344D01*
X184415377Y-57336250D01*
X184415381Y-57336255D01*
X184456722Y-57382169D01*
X184461006Y-57387184D01*
X184473928Y-57403141D01*
X184488443Y-57417656D01*
X184492984Y-57422441D01*
X184538747Y-57473266D01*
X184544086Y-57477145D01*
X184544087Y-57477146D01*
X184550135Y-57481540D01*
X184565168Y-57494381D01*
X190092567Y-63021780D01*
X190126593Y-63084092D01*
X190121528Y-63154907D01*
X190078981Y-63211743D01*
X190043349Y-63230399D01*
X189976054Y-63252850D01*
X189851862Y-63329703D01*
X189783413Y-63348540D01*
X189715643Y-63327379D01*
X189696466Y-63311653D01*
X189048741Y-62663928D01*
X188937530Y-62573871D01*
X188931648Y-62570874D01*
X188931645Y-62570872D01*
X188773250Y-62490167D01*
X188767370Y-62487171D01*
X188761000Y-62485464D01*
X188760997Y-62485463D01*
X188589279Y-62439451D01*
X188589275Y-62439450D01*
X188582903Y-62437743D01*
X188576311Y-62437398D01*
X188576308Y-62437397D01*
X188398782Y-62428093D01*
X188398777Y-62428093D01*
X188392190Y-62427748D01*
X188385675Y-62428780D01*
X188385673Y-62428780D01*
X188210089Y-62456590D01*
X188210087Y-62456590D01*
X188203568Y-62457623D01*
X188197401Y-62459990D01*
X188197402Y-62459990D01*
X188031446Y-62523694D01*
X188031443Y-62523695D01*
X188025278Y-62526062D01*
X188019739Y-62529659D01*
X187945256Y-62578029D01*
X187865113Y-62630074D01*
X187730074Y-62765113D01*
X187626062Y-62925278D01*
X187557623Y-63103568D01*
X187556590Y-63110087D01*
X187556590Y-63110089D01*
X187540490Y-63211743D01*
X187527748Y-63292190D01*
X187528093Y-63298777D01*
X187528093Y-63298782D01*
X187533053Y-63393422D01*
X187537743Y-63482903D01*
X187539450Y-63489275D01*
X187539451Y-63489279D01*
X187585463Y-63660997D01*
X187587171Y-63667370D01*
X187590167Y-63673250D01*
X187648754Y-63788234D01*
X187673871Y-63837530D01*
X187763928Y-63948741D01*
X189094419Y-65279232D01*
X189107260Y-65294265D01*
X189115534Y-65305653D01*
X189120443Y-65310073D01*
X189166359Y-65351416D01*
X189171144Y-65355957D01*
X189185659Y-65370472D01*
X189188223Y-65372548D01*
X189201616Y-65383394D01*
X189206631Y-65387678D01*
X189252545Y-65429019D01*
X189252550Y-65429023D01*
X189257456Y-65433440D01*
X189263172Y-65436740D01*
X189263176Y-65436743D01*
X189269637Y-65440473D01*
X189285933Y-65451673D01*
X189296870Y-65460529D01*
X189302748Y-65463524D01*
X189302751Y-65463526D01*
X189357826Y-65491588D01*
X189363623Y-65494736D01*
X189417123Y-65525624D01*
X189422844Y-65528927D01*
X189436226Y-65533275D01*
X189454485Y-65540838D01*
X189467030Y-65547230D01*
X189473401Y-65548937D01*
X189473406Y-65548939D01*
X189475855Y-65549595D01*
X189477114Y-65550362D01*
X189479575Y-65551307D01*
X189479402Y-65551757D01*
X189536478Y-65586545D01*
X189562769Y-65631425D01*
X189608450Y-65768346D01*
X189701522Y-65918748D01*
X189826697Y-66043705D01*
X189832927Y-66047545D01*
X189832928Y-66047546D01*
X189970090Y-66132094D01*
X189977262Y-66136515D01*
X190057005Y-66162964D01*
X190138611Y-66190032D01*
X190138613Y-66190032D01*
X190145139Y-66192197D01*
X190151975Y-66192897D01*
X190151978Y-66192898D01*
X190195031Y-66197309D01*
X190249600Y-66202900D01*
X190850400Y-66202900D01*
X190853646Y-66202563D01*
X190853650Y-66202563D01*
X190949308Y-66192638D01*
X190949312Y-66192637D01*
X190956166Y-66191926D01*
X190962702Y-66189745D01*
X190962704Y-66189745D01*
X191094806Y-66145672D01*
X191123946Y-66135950D01*
X191274348Y-66042878D01*
X191399305Y-65917703D01*
X191492115Y-65767138D01*
X191518564Y-65687395D01*
X191545632Y-65605789D01*
X191545632Y-65605787D01*
X191547797Y-65599261D01*
X191558500Y-65494800D01*
X191558500Y-64791903D01*
X191578502Y-64723782D01*
X191632158Y-64677289D01*
X191702432Y-64667185D01*
X191767012Y-64696679D01*
X191773595Y-64702808D01*
X192004595Y-64933808D01*
X192038621Y-64996120D01*
X192041500Y-65022903D01*
X192041500Y-65494800D01*
X192041837Y-65498046D01*
X192041837Y-65498050D01*
X192047410Y-65551757D01*
X192052474Y-65600566D01*
X192108450Y-65768346D01*
X192201522Y-65918748D01*
X192326697Y-66043705D01*
X192332927Y-66047545D01*
X192332928Y-66047546D01*
X192470090Y-66132094D01*
X192477262Y-66136515D01*
X192557005Y-66162964D01*
X192638611Y-66190032D01*
X192638613Y-66190032D01*
X192645139Y-66192197D01*
X192651975Y-66192897D01*
X192651978Y-66192898D01*
X192695031Y-66197309D01*
X192749600Y-66202900D01*
X193350400Y-66202900D01*
X193353646Y-66202563D01*
X193353650Y-66202563D01*
X193449308Y-66192638D01*
X193449312Y-66192637D01*
X193456166Y-66191926D01*
X193462702Y-66189745D01*
X193462704Y-66189745D01*
X193594806Y-66145672D01*
X193623946Y-66135950D01*
X193774348Y-66042878D01*
X193899305Y-65917703D01*
X193992115Y-65767138D01*
X194018564Y-65687395D01*
X194045632Y-65605789D01*
X194045632Y-65605787D01*
X194047797Y-65599261D01*
X194058500Y-65494800D01*
X194058500Y-65022903D01*
X194078502Y-64954782D01*
X194095405Y-64933808D01*
X194326405Y-64702808D01*
X194388717Y-64668782D01*
X194459532Y-64673847D01*
X194516368Y-64716394D01*
X194541179Y-64782914D01*
X194541500Y-64791903D01*
X194541500Y-65494800D01*
X194541837Y-65498046D01*
X194541837Y-65498050D01*
X194547410Y-65551757D01*
X194552474Y-65600566D01*
X194608450Y-65768346D01*
X194701522Y-65918748D01*
X194826697Y-66043705D01*
X194832927Y-66047545D01*
X194832928Y-66047546D01*
X194970090Y-66132094D01*
X194977262Y-66136515D01*
X195057005Y-66162964D01*
X195138611Y-66190032D01*
X195138613Y-66190032D01*
X195145139Y-66192197D01*
X195151975Y-66192897D01*
X195151978Y-66192898D01*
X195195031Y-66197309D01*
X195249600Y-66202900D01*
X195850400Y-66202900D01*
X195853646Y-66202563D01*
X195853650Y-66202563D01*
X195949308Y-66192638D01*
X195949312Y-66192637D01*
X195956166Y-66191926D01*
X195962702Y-66189745D01*
X195962704Y-66189745D01*
X196094806Y-66145672D01*
X196123946Y-66135950D01*
X196274348Y-66042878D01*
X196399305Y-65917703D01*
X196492115Y-65767138D01*
X196518564Y-65687395D01*
X196545632Y-65605789D01*
X196545632Y-65605787D01*
X196547797Y-65599261D01*
X196558500Y-65494800D01*
X196558500Y-63894000D01*
X196552641Y-63837530D01*
X196548238Y-63795092D01*
X196548237Y-63795088D01*
X196547526Y-63788234D01*
X196491550Y-63620454D01*
X196398478Y-63470052D01*
X196273303Y-63345095D01*
X196248331Y-63329702D01*
X196128968Y-63256125D01*
X196128966Y-63256124D01*
X196122738Y-63252285D01*
X196056886Y-63230443D01*
X195998526Y-63190013D01*
X195971289Y-63124448D01*
X195983822Y-63054567D01*
X196007458Y-63021755D01*
X201534832Y-57494381D01*
X201549865Y-57481540D01*
X201555913Y-57477146D01*
X201555914Y-57477145D01*
X201561253Y-57473266D01*
X201607016Y-57422441D01*
X201611557Y-57417656D01*
X201626072Y-57403141D01*
X201638994Y-57387184D01*
X201643278Y-57382169D01*
X201684619Y-57336255D01*
X201684623Y-57336250D01*
X201689040Y-57331344D01*
X201692340Y-57325628D01*
X201692343Y-57325624D01*
X201696073Y-57319163D01*
X201707273Y-57302866D01*
X201711975Y-57297060D01*
X201711976Y-57297058D01*
X201716129Y-57291930D01*
X201747186Y-57230977D01*
X201750333Y-57225182D01*
X201781223Y-57171679D01*
X201781224Y-57171678D01*
X201784527Y-57165956D01*
X201788875Y-57152573D01*
X201796441Y-57134307D01*
X201799832Y-57127652D01*
X201802829Y-57121770D01*
X201809105Y-57098351D01*
X201820529Y-57055715D01*
X201822402Y-57049391D01*
X201841500Y-56990612D01*
X201843542Y-56984328D01*
X201845012Y-56970339D01*
X201848617Y-56950886D01*
X201850547Y-56943685D01*
X201852257Y-56937304D01*
X201855836Y-56869015D01*
X201856353Y-56862440D01*
X201858156Y-56845282D01*
X201858500Y-56842010D01*
X201858500Y-56821474D01*
X201858673Y-56814881D01*
X201861907Y-56753182D01*
X201861907Y-56753177D01*
X201862252Y-56746590D01*
X201860051Y-56732692D01*
X201858500Y-56712983D01*
X201858500Y-56274500D01*
X201878502Y-56206379D01*
X201932158Y-56159886D01*
X201984500Y-56148500D01*
X202748134Y-56148500D01*
X202810316Y-56141745D01*
X202946705Y-56090615D01*
X203063261Y-56003261D01*
X203150615Y-55886705D01*
X203201745Y-55750316D01*
X203208500Y-55688134D01*
X203208500Y-52291866D01*
X203201745Y-52229684D01*
X203150615Y-52093295D01*
X203063261Y-51976739D01*
X202946705Y-51889385D01*
X202810316Y-51838255D01*
X202748134Y-51831500D01*
X199151866Y-51831500D01*
X199089684Y-51838255D01*
X198953295Y-51889385D01*
X198836739Y-51976739D01*
X198749385Y-52093295D01*
X198698255Y-52229684D01*
X198691500Y-52291866D01*
X198691500Y-52419107D01*
X198671498Y-52487228D01*
X198617842Y-52533721D01*
X198547568Y-52543825D01*
X198482988Y-52514331D01*
X198444878Y-52455525D01*
X198351601Y-52146576D01*
X198349870Y-52141606D01*
X198178756Y-51709419D01*
X198176610Y-51704599D01*
X197969937Y-51288260D01*
X197967386Y-51283621D01*
X197726601Y-50886036D01*
X197723686Y-50881649D01*
X197450476Y-50505606D01*
X197447182Y-50501452D01*
X197204481Y-50220280D01*
X197191439Y-50211863D01*
X197181408Y-50217802D01*
X193422022Y-53977188D01*
X193414408Y-53991132D01*
X193414539Y-53992965D01*
X193418790Y-53999580D01*
X197179832Y-57760622D01*
X197193459Y-57768063D01*
X197203024Y-57761409D01*
X197447182Y-57478548D01*
X197450476Y-57474394D01*
X197723686Y-57098351D01*
X197726601Y-57093964D01*
X197967386Y-56696379D01*
X197969937Y-56691740D01*
X198176610Y-56275401D01*
X198178756Y-56270581D01*
X198349870Y-55838394D01*
X198351601Y-55833424D01*
X198444878Y-55524475D01*
X198483715Y-55465043D01*
X198548519Y-55436043D01*
X198618714Y-55446681D01*
X198672014Y-55493581D01*
X198691500Y-55560893D01*
X198691500Y-55688134D01*
X198698255Y-55750316D01*
X198749385Y-55886705D01*
X198836739Y-56003261D01*
X198953295Y-56090615D01*
X199089684Y-56141745D01*
X199151866Y-56148500D01*
X199915500Y-56148500D01*
X199983621Y-56168502D01*
X200030114Y-56222158D01*
X200041500Y-56274500D01*
X200041500Y-56365897D01*
X200021498Y-56434018D01*
X200004595Y-56454992D01*
X193310592Y-63148995D01*
X193248280Y-63183021D01*
X193221497Y-63185900D01*
X192878503Y-63185900D01*
X192810382Y-63165898D01*
X192789408Y-63148995D01*
X187772730Y-58132317D01*
X189273223Y-58132317D01*
X189273228Y-58132391D01*
X189279335Y-58141369D01*
X189470130Y-58313160D01*
X189474213Y-58316538D01*
X189844444Y-58597558D01*
X189848789Y-58600578D01*
X190241243Y-58849637D01*
X190245804Y-58852271D01*
X190657738Y-59067625D01*
X190662508Y-59069869D01*
X191091016Y-59249997D01*
X191095956Y-59251834D01*
X191538022Y-59395470D01*
X191543110Y-59396890D01*
X191995642Y-59503031D01*
X192000838Y-59504022D01*
X192460654Y-59571922D01*
X192465922Y-59572475D01*
X192929815Y-59601661D01*
X192935088Y-59601772D01*
X193399800Y-59592037D01*
X193405073Y-59591706D01*
X193867364Y-59543117D01*
X193872556Y-59542350D01*
X194329155Y-59455249D01*
X194334291Y-59454045D01*
X194781992Y-59329044D01*
X194786990Y-59327420D01*
X195222674Y-59165391D01*
X195227541Y-59163344D01*
X195648121Y-58965435D01*
X195652792Y-58962993D01*
X196055339Y-58730583D01*
X196059792Y-58727757D01*
X196441496Y-58462466D01*
X196445673Y-58459295D01*
X196803832Y-58163000D01*
X196807759Y-58159465D01*
X196821337Y-58146167D01*
X196829096Y-58132305D01*
X196829005Y-58130821D01*
X196824466Y-58123676D01*
X193062812Y-54362022D01*
X193048868Y-54354408D01*
X193047035Y-54354539D01*
X193040420Y-54358790D01*
X189280837Y-58118373D01*
X189273223Y-58132317D01*
X187772730Y-58132317D01*
X186095405Y-56454992D01*
X186061379Y-56392680D01*
X186058500Y-56365897D01*
X186058500Y-56274500D01*
X186078502Y-56206379D01*
X186132158Y-56159886D01*
X186184500Y-56148500D01*
X186948134Y-56148500D01*
X187010316Y-56141745D01*
X187146705Y-56090615D01*
X187263261Y-56003261D01*
X187350615Y-55886705D01*
X187401745Y-55750316D01*
X187408500Y-55688134D01*
X187408500Y-55565917D01*
X187428502Y-55497796D01*
X187482158Y-55451303D01*
X187552432Y-55441199D01*
X187617012Y-55470693D01*
X187656541Y-55534582D01*
X187675848Y-55609778D01*
X187677380Y-55614851D01*
X187830243Y-56053811D01*
X187832181Y-56058707D01*
X188021245Y-56483353D01*
X188023589Y-56488075D01*
X188247527Y-56895416D01*
X188250247Y-56899908D01*
X188507483Y-57287079D01*
X188510576Y-57291335D01*
X188799296Y-57655610D01*
X188802757Y-57659620D01*
X188896130Y-57759052D01*
X188909826Y-57767099D01*
X188910608Y-57767067D01*
X188918820Y-57761970D01*
X192677978Y-54002812D01*
X192685592Y-53988868D01*
X192685461Y-53987035D01*
X192681210Y-53980420D01*
X188921344Y-50220554D01*
X188907400Y-50212940D01*
X188906620Y-50212995D01*
X188898573Y-50218347D01*
X188802757Y-50320380D01*
X188799296Y-50324390D01*
X188510576Y-50688665D01*
X188507483Y-50692921D01*
X188250247Y-51080092D01*
X188247527Y-51084584D01*
X188023589Y-51491925D01*
X188021245Y-51496647D01*
X187832181Y-51921293D01*
X187830243Y-51926189D01*
X187677380Y-52365149D01*
X187675848Y-52370222D01*
X187656541Y-52445418D01*
X187620227Y-52506424D01*
X187556695Y-52538113D01*
X187486116Y-52530423D01*
X187430898Y-52485796D01*
X187408500Y-52414083D01*
X187408500Y-52291866D01*
X187401745Y-52229684D01*
X187350615Y-52093295D01*
X187263261Y-51976739D01*
X187146705Y-51889385D01*
X187010316Y-51838255D01*
X186948134Y-51831500D01*
X183351866Y-51831500D01*
X183289684Y-51838255D01*
X183153295Y-51889385D01*
X183036739Y-51976739D01*
X182949385Y-52093295D01*
X182898255Y-52229684D01*
X182891500Y-52291866D01*
X182891500Y-55688134D01*
X178538000Y-55688134D01*
X178538000Y-49850216D01*
X189273157Y-49850216D01*
X189273158Y-49850292D01*
X189278788Y-49859578D01*
X193037188Y-53617978D01*
X193051132Y-53625592D01*
X193052965Y-53625461D01*
X193059580Y-53621210D01*
X196821469Y-49859321D01*
X196829083Y-49845377D01*
X196828977Y-49843893D01*
X196824365Y-49836798D01*
X196807759Y-49820535D01*
X196803832Y-49817000D01*
X196445673Y-49520705D01*
X196441496Y-49517534D01*
X196059792Y-49252243D01*
X196055339Y-49249417D01*
X195652792Y-49017007D01*
X195648121Y-49014565D01*
X195227541Y-48816656D01*
X195222674Y-48814609D01*
X194786990Y-48652580D01*
X194781992Y-48650956D01*
X194334291Y-48525955D01*
X194329155Y-48524751D01*
X193872556Y-48437650D01*
X193867364Y-48436883D01*
X193405073Y-48388294D01*
X193399800Y-48387963D01*
X192935088Y-48378228D01*
X192929815Y-48378339D01*
X192465922Y-48407525D01*
X192460654Y-48408078D01*
X192000838Y-48475978D01*
X191995642Y-48476969D01*
X191543110Y-48583110D01*
X191538022Y-48584530D01*
X191095956Y-48728166D01*
X191091016Y-48730003D01*
X190662508Y-48910131D01*
X190657738Y-48912375D01*
X190245804Y-49127729D01*
X190241243Y-49130363D01*
X189848789Y-49379422D01*
X189844444Y-49382442D01*
X189474213Y-49663462D01*
X189470130Y-49666840D01*
X189281488Y-49836693D01*
X189273157Y-49850216D01*
X178538000Y-49850216D01*
X178538000Y-47737823D01*
X178558002Y-47669702D01*
X178574955Y-47648677D01*
X182220508Y-44007267D01*
X184130212Y-42099733D01*
X191037822Y-42099733D01*
X191047625Y-42380458D01*
X191048387Y-42384781D01*
X191048388Y-42384788D01*
X191072164Y-42519624D01*
X191096402Y-42657087D01*
X191183203Y-42924235D01*
X191306340Y-43176702D01*
X191308795Y-43180341D01*
X191308798Y-43180347D01*
X191381890Y-43288710D01*
X191463415Y-43409576D01*
X191651371Y-43618322D01*
X191866550Y-43798879D01*
X192104764Y-43947731D01*
X192361375Y-44061982D01*
X192631390Y-44139407D01*
X192635740Y-44140018D01*
X192635743Y-44140019D01*
X192738690Y-44154487D01*
X192909552Y-44178500D01*
X193120146Y-44178500D01*
X193122332Y-44178347D01*
X193122336Y-44178347D01*
X193325827Y-44164118D01*
X193325832Y-44164117D01*
X193330212Y-44163811D01*
X193604970Y-44105409D01*
X193609099Y-44103906D01*
X193609103Y-44103905D01*
X193864781Y-44010846D01*
X193864785Y-44010844D01*
X193868926Y-44009337D01*
X194116942Y-43877464D01*
X194221896Y-43801211D01*
X194340629Y-43714947D01*
X194340632Y-43714944D01*
X194344192Y-43712358D01*
X194546252Y-43517231D01*
X194719188Y-43295882D01*
X194721384Y-43292078D01*
X194721389Y-43292071D01*
X194857435Y-43056431D01*
X194859636Y-43052619D01*
X194964862Y-42792176D01*
X194998544Y-42657087D01*
X195031753Y-42523893D01*
X195031754Y-42523888D01*
X195032817Y-42519624D01*
X195062178Y-42240267D01*
X195052375Y-41959542D01*
X195028608Y-41824749D01*
X195004360Y-41687236D01*
X195003598Y-41682913D01*
X194916797Y-41415765D01*
X194793660Y-41163298D01*
X194791205Y-41159659D01*
X194791202Y-41159653D01*
X194710935Y-41040653D01*
X194636585Y-40930424D01*
X194448629Y-40721678D01*
X194233450Y-40541121D01*
X193995236Y-40392269D01*
X193738625Y-40278018D01*
X193468610Y-40200593D01*
X193464260Y-40199982D01*
X193464257Y-40199981D01*
X193361310Y-40185513D01*
X193190448Y-40161500D01*
X192979854Y-40161500D01*
X192977668Y-40161653D01*
X192977664Y-40161653D01*
X192774173Y-40175882D01*
X192774168Y-40175883D01*
X192769788Y-40176189D01*
X192495030Y-40234591D01*
X192490901Y-40236094D01*
X192490897Y-40236095D01*
X192235219Y-40329154D01*
X192235215Y-40329156D01*
X192231074Y-40330663D01*
X191983058Y-40462536D01*
X191979499Y-40465122D01*
X191979497Y-40465123D01*
X191874895Y-40541121D01*
X191755808Y-40627642D01*
X191553748Y-40822769D01*
X191380812Y-41044118D01*
X191378616Y-41047922D01*
X191378611Y-41047929D01*
X191264794Y-41245067D01*
X191240364Y-41287381D01*
X191135138Y-41547824D01*
X191134073Y-41552097D01*
X191134072Y-41552099D01*
X191100379Y-41687236D01*
X191067183Y-41820376D01*
X191037822Y-42099733D01*
X184130212Y-42099733D01*
X187003356Y-39229854D01*
X187065688Y-39195864D01*
X187092401Y-39193000D01*
X199046753Y-39193000D01*
X199114874Y-39213002D01*
G37*
%TD.AperFunction*%
%TD*%
M02*
